<svg width="236" height="236" viewBox="0 0 236 236" fill="none" xmlns="http://www.w3.org/2000/svg">
<path d="M189.01 0H46.65C20.8859 0 0 20.8859 0 46.65V189.01C0 214.774 20.8859 235.66 46.65 235.66H189.01C214.774 235.66 235.66 214.774 235.66 189.01V46.65C235.66 20.8859 214.774 0 189.01 0Z" fill="#1D1E27"/>
<path d="M100.29 42.79C107.21 42.79 112.83 48.4 112.83 55.33V100.3C112.83 107.22 107.22 112.84 100.29 112.84H55.32C48.4 112.84 42.78 107.23 42.78 100.3C42.78 93.38 48.39 87.76 55.32 87.76H70.03L49.71 67.44C45.02 62.75 45.02 55.14 49.71 50.45L50.45 49.71C52.8 47.36 55.87 46.19 58.95 46.19C62.03 46.19 65.1 47.36 67.45 49.71L87.77 70.03V55.33C87.77 48.41 93.38 42.79 100.31 42.79M100.29 32.79C90.67 32.79 82.44 38.85 79.21 47.35L74.5 42.64C70.34 38.48 64.81 36.19 58.93 36.19C53.05 36.19 47.52 38.48 43.36 42.64L42.62 43.38C34.04 51.96 34.04 65.93 42.62 74.51L47.33 79.22C38.83 82.45 32.77 90.68 32.77 100.3C32.77 112.73 42.88 122.84 55.31 122.84H100.28C112.71 122.84 122.82 112.73 122.82 100.3V55.33C122.82 42.9 112.71 32.79 100.28 32.79H100.29Z" fill="white"/>
<path d="M180.33 122.83C187.25 122.83 192.87 128.44 192.87 135.37C192.87 142.3 187.26 147.91 180.33 147.91H165.62L185.94 168.23C190.63 172.92 190.63 180.53 185.94 185.22L185.2 185.96C182.85 188.31 179.78 189.48 176.7 189.48C173.62 189.48 170.55 188.31 168.2 185.96L147.88 165.64V180.34C147.88 187.26 142.27 192.88 135.34 192.88C128.41 192.88 122.8 187.27 122.8 180.34V135.37C122.8 128.45 128.41 122.83 135.34 122.83H180.31M180.33 112.83H135.36C122.93 112.83 112.82 122.94 112.82 135.37V180.34C112.82 192.77 122.93 202.88 135.36 202.88C144.98 202.88 153.21 196.82 156.44 188.32L161.15 193.02C165.31 197.18 170.84 199.47 176.72 199.47C182.6 199.47 188.13 197.18 192.29 193.02L193.03 192.28C197.19 188.12 199.48 182.59 199.48 176.71C199.48 170.83 197.19 165.3 193.03 161.14L188.32 156.44C196.82 153.21 202.88 144.98 202.88 135.36C202.88 122.93 192.77 112.82 180.34 112.82L180.33 112.83Z" fill="#FFC300"/>
</svg>
